<svg width="68" height="30" viewBox="0 0 68 30" fill="none" xmlns="http://www.w3.org/2000/svg">
<g clip-path="url(#clip0_1_74)">
<path d="M64.5913 24.5214C66.7213 21.9315 68 18.6151 68 15C68 11.3849 66.7213 8.06857 64.5913 5.4786C62.0713 7.87022 60.5 11.2516 60.5 15C60.5 18.7484 62.0713 22.1297 64.5913 24.5214Z" fill="black"/>
<path d="M61.8644 27.1018C58.7097 24.0356 56.75 19.7467 56.75 15C56.75 10.2533 58.7097 5.96439 61.8644 2.89821C59.381 1.07612 56.3162 0 53 0C49.6838 0 46.619 1.07612 44.1356 2.89821C47.2902 5.96439 49.25 10.2533 49.25 15C49.25 19.7467 47.2902 24.0356 44.1356 27.1018C46.619 28.9239 49.6838 30 53 30C56.3162 30 59.381 28.9239 61.8644 27.1018Z" fill="black"/>
<path d="M38 15C38 11.3849 39.2788 8.06857 41.4088 5.4786C43.9287 7.87022 45.5 11.2516 45.5 15C45.5 18.7484 43.9287 22.1297 41.4088 24.5214C39.2788 21.9315 38 18.6151 38 15Z" fill="black"/>
</g>
<path d="M0.800003 29V1H8.16L15.92 15.2L23.6 1H30.8V29H23.6V12.96L17.8 23.6H13.8L8 12.96V29H0.800003Z" fill="black"/>
<defs>
<clipPath id="clip0_1_74">
<rect width="30" height="30" fill="white" transform="translate(38)"/>
</clipPath>
</defs>
</svg>
