<svg width="292" height="31" viewBox="0 0 292 31" fill="none" xmlns="http://www.w3.org/2000/svg">
<g clip-path="url(#clip0_1_75)">
<path d="M215.591 24.5214C217.721 21.9315 219 18.6151 219 15C219 11.3849 217.721 8.06857 215.591 5.4786C213.071 7.87022 211.5 11.2516 211.5 15C211.5 18.7484 213.071 22.1297 215.591 24.5214Z" fill="black"/>
<path d="M212.864 27.1018C209.71 24.0356 207.75 19.7467 207.75 15C207.75 10.2533 209.71 5.96439 212.864 2.89821C210.381 1.07612 207.316 0 204 0C200.684 0 197.619 1.07612 195.136 2.89821C198.29 5.96439 200.25 10.2533 200.25 15C200.25 19.7467 198.29 24.0356 195.136 27.1018C197.619 28.9239 200.684 30 204 30C207.316 30 210.381 28.9239 212.864 27.1018Z" fill="black"/>
<path d="M189 15C189 11.3849 190.279 8.06857 192.409 5.4786C194.929 7.87022 196.5 11.2516 196.5 15C196.5 18.7484 194.929 22.1297 192.409 24.5214C190.279 21.9315 189 18.6151 189 15Z" fill="black"/>
</g>
<path d="M161.225 29.52V1.52H172.625C175.238 1.52 177.385 1.90667 179.065 2.68C180.745 3.42667 181.985 4.52 182.785 5.96C183.612 7.37334 184.025 9.08 184.025 11.08C184.025 13.0533 183.612 14.76 182.785 16.2C181.985 17.64 180.745 18.7467 179.065 19.52C177.385 20.2667 175.238 20.64 172.625 20.64H168.425V29.52H161.225ZM168.425 14.72H171.825C173.665 14.72 174.958 14.4133 175.705 13.8C176.452 13.1867 176.825 12.28 176.825 11.08C176.825 9.88 176.452 8.97333 175.705 8.36C174.958 7.74667 173.665 7.44 171.825 7.44H168.425V14.72Z" fill="black"/>
<path d="M119.234 29.52V1.52H126.434V12.16H136.834V1.52H144.034V29.52H136.834V18.08H126.434V29.52H119.234Z" fill="black"/>
<path d="M102.036 30.04C99.4759 30.04 97.2093 29.5733 95.2359 28.64C93.2893 27.68 91.7693 26.1467 90.6759 24.04C89.5826 21.9333 89.0359 19.1467 89.0359 15.68V14.92C89.0359 12.4667 89.3693 10.36 90.0359 8.6C90.7026 6.84 91.6226 5.4 92.7959 4.28C93.9959 3.16 95.3826 2.33333 96.9559 1.8C98.5293 1.26667 100.223 1 102.036 1C103.663 1 105.196 1.18667 106.636 1.56C108.076 1.93333 109.329 2.52 110.396 3.32C111.489 4.12 112.369 5.16 113.036 6.44C113.703 7.72 114.103 9.28 114.236 11.12H106.756C106.516 9.65334 105.956 8.6 105.076 7.96C104.196 7.32 103.183 7 102.036 7C100.969 7 100.009 7.26667 99.1559 7.8C98.3293 8.30667 97.6759 9.13333 97.1959 10.28C96.7159 11.4267 96.4759 12.9733 96.4759 14.92V15.76C96.4759 17.3067 96.6226 18.6133 96.9159 19.68C97.2093 20.7467 97.6093 21.6 98.1159 22.24C98.6493 22.88 99.2493 23.3467 99.9159 23.64C100.583 23.9067 101.289 24.04 102.036 24.04C103.396 24.04 104.476 23.72 105.276 23.08C106.103 22.4133 106.596 21.36 106.756 19.92H114.236C114.129 21.7867 113.743 23.3733 113.076 24.68C112.436 25.96 111.569 27 110.476 27.8C109.409 28.5733 108.156 29.1467 106.716 29.52C105.276 29.8667 103.716 30.04 102.036 30.04Z" fill="black"/>
<path d="M70.1719 29.52V7.44H61.5719V1.52H85.9719V7.44H77.3719V29.52H70.1719Z" fill="black"/>
<path d="M34.7459 29.52L44.9859 1.52H52.1859L62.3859 29.52H54.7859L52.8659 24.16H43.5059L41.5859 29.52H34.7459ZM45.5459 18.64H50.8259L48.1859 10.32L45.5459 18.64Z" fill="black"/>
<path d="M0.800003 29.52V1.52H8.16L15.92 15.72L23.6 1.52H30.8V29.52H23.6V13.48L17.8 24.12H13.8L8 13.48V29.52H0.800003Z" fill="black"/>
<path d="M275.984 29.52V7.44H267.384V1.52H291.784V7.44H283.184V29.52H275.984Z" fill="black"/>
<path d="M238.194 29.52V1.52H244.554L255.394 17.12V1.52H262.994V29.52H256.194L245.394 13.92V29.52H238.194Z" fill="black"/>
<path d="M224.2 29.52V1.52H231.4V29.52H224.2Z" fill="black"/>
<defs>
<clipPath id="clip0_1_75">
<rect width="30" height="30" fill="white" transform="translate(189)"/>
</clipPath>
</defs>
</svg>
